NotoSansTaiLe-Regular.ufo
<glyph name="uni0300" format="2">
  <unicode hex="0300"/>
  <note>
uni0300
</note>
  <outline>
    <contour>
      <point x="-320" y="606" type="curve"/>
      <point x="-261" y="606" type="line"/>
      <point x="-261" y="618" type="line"/>
      <point x="-292" y="653"/>
      <point x="-336" y="723"/>
      <point x="-357" y="766" type="curve"/>
      <point x="-462" y="766" type="line"/>
      <point x="-462" y="756" type="line"/>
      <point x="-438" y="719"/>
      <point x="-369" y="645"/>
    </contour>
  </outline>
</glyph>
<glyph name="uni0301" format="2">
  <unicode hex="0301"/>
  <note>
uni0301
</note>
  <outline>
    <contour>
      <point x="-372" y="606" type="line"/>
      <point x="-313" y="606" type="line"/>
      <point x="-272" y="638"/>
      <point x="-199" y="714"/>
      <point x="-170" y="756" type="curve"/>
      <point x="-170" y="766" type="line"/>
      <point x="-276" y="766" type="line"/>
      <point x="-302" y="715"/>
      <point x="-347" y="649"/>
      <point x="-372" y="618" type="curve"/>
    </contour>
  </outline>
</glyph>
<glyph name="uni0307" format="2">
  <unicode hex="0307"/>
  <note>
uni0307
</note>
  <outline>
    <contour>
      <point x="-316" y="625" type="curve" smooth="yes"/>
      <point x="-289" y="625"/>
      <point x="-265" y="643"/>
      <point x="-265" y="681" type="curve" smooth="yes"/>
      <point x="-265" y="720"/>
      <point x="-289" y="737"/>
      <point x="-316" y="737" type="curve" smooth="yes"/>
      <point x="-346" y="737"/>
      <point x="-368" y="720"/>
      <point x="-368" y="681" type="curve" smooth="yes"/>
      <point x="-368" y="643"/>
      <point x="-346" y="625"/>
    </contour>
  </outline>
</glyph>
<glyph name="uni0308" format="2">
  <unicode hex="0308"/>
  <note>
uni0308
</note>
  <outline>
    <contour>
      <point x="-410" y="631" type="curve" smooth="yes"/>
      <point x="-385" y="631"/>
      <point x="-363" y="646"/>
      <point x="-363" y="681" type="curve" smooth="yes"/>
      <point x="-363" y="716"/>
      <point x="-385" y="730"/>
      <point x="-410" y="730" type="curve" smooth="yes"/>
      <point x="-436" y="730"/>
      <point x="-457" y="716"/>
      <point x="-457" y="681" type="curve" smooth="yes"/>
      <point x="-457" y="646"/>
      <point x="-436" y="631"/>
    </contour>
    <contour>
      <point x="-223" y="631" type="curve" smooth="yes"/>
      <point x="-198" y="631"/>
      <point x="-176" y="646"/>
      <point x="-176" y="681" type="curve" smooth="yes"/>
      <point x="-176" y="716"/>
      <point x="-198" y="730"/>
      <point x="-223" y="730" type="curve" smooth="yes"/>
      <point x="-248" y="730"/>
      <point x="-269" y="716"/>
      <point x="-269" y="681" type="curve" smooth="yes"/>
      <point x="-269" y="646"/>
      <point x="-248" y="631"/>
    </contour>
  </outline>
</glyph>
<glyph name="uni030C" format="2">
  <unicode hex="030C"/>
  <note>
uni030C
</note>
  <outline>
    <contour>
      <point x="-362" y="606" type="curve"/>
      <point x="-272" y="606" type="line"/>
      <point x="-256" y="637"/>
      <point x="-214" y="686"/>
      <point x="-147" y="753" type="curve"/>
      <point x="-147" y="766" type="line"/>
      <point x="-209" y="766" type="line"/>
      <point x="-241" y="746"/>
      <point x="-277" y="715"/>
      <point x="-318" y="674" type="curve"/>
      <point x="-353" y="711"/>
      <point x="-388" y="742"/>
      <point x="-425" y="766" type="curve"/>
      <point x="-485" y="766" type="line"/>
      <point x="-485" y="753" type="line"/>
      <point x="-423" y="688"/>
      <point x="-382" y="639"/>
    </contour>
  </outline>
</glyph>
<glyph name="uni1040" format="2">
  <advance width="630"/>
  <unicode hex="1040"/>
  <outline>
    <contour>
      <point x="301" y="-10" type="curve" smooth="yes"/>
      <point x="500" y="-10"/>
      <point x="586" y="140"/>
      <point x="586" y="269" type="curve" smooth="yes"/>
      <point x="586" y="415"/>
      <point x="494" y="546"/>
      <point x="329" y="546" type="curve" smooth="yes"/>
      <point x="133" y="546"/>
      <point x="44" y="399"/>
      <point x="44" y="264" type="curve" smooth="yes"/>
      <point x="44" y="109"/>
      <point x="143" y="-10"/>
    </contour>
    <contour>
      <point x="326" y="46" type="curve" smooth="yes"/>
      <point x="215" y="46"/>
      <point x="130" y="129"/>
      <point x="130" y="288" type="curve" smooth="yes"/>
      <point x="130" y="396"/>
      <point x="187" y="490"/>
      <point x="306" y="490" type="curve" smooth="yes"/>
      <point x="428" y="490"/>
      <point x="500" y="392"/>
      <point x="500" y="248" type="curve" smooth="yes"/>
      <point x="500" y="144"/>
      <point x="445" y="46"/>
    </contour>
  </outline>
</glyph>
<glyph name="uni1041" format="2">
  <advance width="563"/>
  <unicode hex="1041"/>
  <outline>
    <contour>
      <point x="237" y="-10" type="curve" smooth="yes"/>
      <point x="433" y="-10"/>
      <point x="520" y="138"/>
      <point x="520" y="267" type="curve" smooth="yes"/>
      <point x="520" y="415"/>
      <point x="429" y="546"/>
      <point x="253" y="546" type="curve" smooth="yes"/>
      <point x="175" y="546"/>
      <point x="96" y="502"/>
      <point x="53" y="458" type="curve"/>
      <point x="83" y="426" type="line"/>
      <point x="130" y="468"/>
      <point x="184" y="490"/>
      <point x="241" y="490" type="curve" smooth="yes"/>
      <point x="362" y="490"/>
      <point x="434" y="392"/>
      <point x="434" y="246" type="curve" smooth="yes"/>
      <point x="434" y="145"/>
      <point x="382" y="46"/>
      <point x="262" y="46" type="curve" smooth="yes"/>
      <point x="208" y="46"/>
      <point x="143" y="74"/>
      <point x="102" y="151" type="curve"/>
      <point x="38" y="107" type="line"/>
      <point x="76" y="38"/>
      <point x="164" y="-10"/>
    </contour>
  </outline>
</glyph>
<glyph name="uni1042" format="2">
  <advance width="599"/>
  <unicode hex="1042"/>
  <outline>
    <contour>
      <point x="257" y="-293" type="curve" smooth="yes"/>
      <point x="448" y="-293"/>
      <point x="550" y="-162"/>
      <point x="550" y="62" type="curve" smooth="yes"/>
      <point x="550" y="209"/>
      <point x="547" y="413"/>
      <point x="540" y="546" type="curve"/>
      <point x="454" y="536" type="line"/>
      <point x="463" y="406"/>
      <point x="464" y="182"/>
      <point x="464" y="55" type="curve" smooth="yes"/>
      <point x="464" y="-168"/>
      <point x="390" y="-237"/>
      <point x="272" y="-237" type="curve" smooth="yes"/>
      <point x="167" y="-237"/>
      <point x="102" y="-145"/>
      <point x="83" y="-88" type="curve"/>
      <point x="4" y="-123" type="line"/>
      <point x="52" y="-213"/>
      <point x="145" y="-293"/>
    </contour>
  </outline>
</glyph>
<glyph name="uni1044" format="2">
  <advance width="563"/>
  <unicode hex="1044"/>
  <outline>
    <contour>
      <point x="315" y="-10" type="curve" smooth="yes"/>
      <point x="394" y="-10"/>
      <point x="470" y="35"/>
      <point x="525" y="107" type="curve"/>
      <point x="488" y="128" type="line"/>
      <point x="446" y="83"/>
      <point x="393" y="46"/>
      <point x="329" y="46" type="curve" smooth="yes"/>
      <point x="224" y="46"/>
      <point x="130" y="135"/>
      <point x="130" y="287" type="curve" smooth="yes"/>
      <point x="130" y="395"/>
      <point x="185" y="490"/>
      <point x="306" y="490" type="curve" smooth="yes"/>
      <point x="360" y="490"/>
      <point x="422" y="463"/>
      <point x="463" y="390" type="curve"/>
      <point x="527" y="434" type="line"/>
      <point x="482" y="500"/>
      <point x="406" y="546"/>
      <point x="327" y="546" type="curve" smooth="yes"/>
      <point x="133" y="546"/>
      <point x="44" y="400"/>
      <point x="44" y="266" type="curve" smooth="yes"/>
      <point x="44" y="107"/>
      <point x="159" y="-10"/>
    </contour>
    <contour>
      <point x="228" y="-291" type="line"/>
      <point x="525" y="107" type="line"/>
      <point x="391" y="35" type="line"/>
      <point x="154" y="-248" type="line"/>
    </contour>
  </outline>
</glyph>
<glyph name="uni1045" format="2">
  <advance width="613"/>
  <unicode hex="1045"/>
  <outline>
    <contour>
      <point x="275" y="-293" type="curve" smooth="yes"/>
      <point x="463" y="-293"/>
      <point x="564" y="-173"/>
      <point x="564" y="55" type="curve" smooth="yes"/>
      <point x="564" y="261" type="line" smooth="yes"/>
      <point x="564" y="397"/>
      <point x="494" y="546"/>
      <point x="304" y="546" type="curve" smooth="yes"/>
      <point x="159" y="546"/>
      <point x="30" y="446"/>
      <point x="30" y="282" type="curve" smooth="yes"/>
      <point x="30" y="180"/>
      <point x="101" y="120"/>
      <point x="183" y="120" type="curve" smooth="yes"/>
      <point x="268" y="120"/>
      <point x="333" y="182"/>
      <point x="333" y="263" type="curve" smooth="yes"/>
      <point x="333" y="343"/>
      <point x="269" y="399"/>
      <point x="196" y="399" type="curve" smooth="yes"/>
      <point x="172" y="399"/>
      <point x="137" y="387"/>
      <point x="117" y="367" type="curve"/>
      <point x="130" y="428"/>
      <point x="194" y="490"/>
      <point x="278" y="490" type="curve" smooth="yes"/>
      <point x="412" y="490"/>
      <point x="479" y="390"/>
      <point x="479" y="262" type="curve" smooth="yes"/>
      <point x="479" y="55" type="line"/>
      <point x="479" y="-168"/>
      <point x="404" y="-237"/>
      <point x="287" y="-237" type="curve" smooth="yes"/>
      <point x="185" y="-237"/>
      <point x="123" y="-162"/>
      <point x="97" y="-88" type="curve"/>
      <point x="19" y="-123" type="line"/>
      <point x="67" y="-215"/>
      <point x="154" y="-293"/>
    </contour>
    <contour>
      <point x="190" y="173" type="curve" smooth="yes"/>
      <point x="140" y="173"/>
      <point x="102" y="218"/>
      <point x="102" y="265" type="curve" smooth="yes"/>
      <point x="102" y="313"/>
      <point x="132" y="346"/>
      <point x="172" y="346" type="curve" smooth="yes"/>
      <point x="234" y="346"/>
      <point x="264" y="295"/>
      <point x="264" y="254" type="curve" smooth="yes"/>
      <point x="264" y="213"/>
      <point x="243" y="173"/>
    </contour>
  </outline>
</glyph>
<glyph name="uni1046" format="2">
  <advance width="670"/>
  <unicode hex="1046"/>
  <outline>
    <contour>
      <point x="335" y="-10" type="curve" smooth="yes"/>
      <point x="542" y="-10"/>
      <point x="626" y="93"/>
      <point x="626" y="224" type="curve" smooth="yes"/>
      <point x="626" y="269"/>
      <point x="603" y="349"/>
      <point x="520" y="349" type="curve" smooth="yes"/>
      <point x="449" y="349"/>
      <point x="427" y="327"/>
      <point x="362" y="327" type="curve" smooth="yes"/>
      <point x="323" y="327"/>
      <point x="296" y="357"/>
      <point x="296" y="404" type="curve" smooth="yes"/>
      <point x="296" y="447"/>
      <point x="320" y="491"/>
      <point x="382" y="491" type="curve" smooth="yes"/>
      <point x="417" y="491"/>
      <point x="469" y="485"/>
      <point x="500" y="477" type="curve"/>
      <point x="512" y="523" type="line"/>
      <point x="474" y="536"/>
      <point x="425" y="547"/>
      <point x="372" y="547" type="curve" smooth="yes"/>
      <point x="269" y="547"/>
      <point x="215" y="468"/>
      <point x="215" y="403" type="curve" smooth="yes"/>
      <point x="215" y="322"/>
      <point x="263" y="271"/>
      <point x="351" y="271" type="curve" smooth="yes"/>
      <point x="411" y="271"/>
      <point x="450" y="291"/>
      <point x="496" y="291" type="curve" smooth="yes"/>
      <point x="519" y="291"/>
      <point x="540" y="267"/>
      <point x="540" y="222" type="curve" smooth="yes"/>
      <point x="540" y="118"/>
      <point x="487" y="46"/>
      <point x="355" y="46" type="curve" smooth="yes"/>
      <point x="208" y="46"/>
      <point x="135" y="150"/>
      <point x="135" y="286" type="curve" smooth="yes"/>
      <point x="135" y="549" type="line" smooth="yes"/>
      <point x="135" y="668"/>
      <point x="160" y="845"/>
      <point x="340" y="845" type="curve" smooth="yes"/>
      <point x="433" y="845"/>
      <point x="500" y="826"/>
      <point x="566" y="771" type="curve"/>
      <point x="607" y="812" type="line"/>
      <point x="519" y="885"/>
      <point x="447" y="908"/>
      <point x="340" y="908" type="curve" smooth="yes"/>
      <point x="94" y="908"/>
      <point x="49" y="676"/>
      <point x="49" y="539" type="curve" smooth="yes"/>
      <point x="49" y="282" type="line" smooth="yes"/>
      <point x="49" y="126"/>
      <point x="134" y="-10"/>
    </contour>
  </outline>
</glyph>
<glyph name="uni1047" format="2">
  <advance width="629"/>
  <unicode hex="1047"/>
  <outline>
    <contour>
      <point x="352" y="-293" type="curve" smooth="yes"/>
      <point x="419" y="-293"/>
      <point x="472" y="-259"/>
      <point x="506" y="-220" type="curve"/>
      <point x="478" y="-185" type="line"/>
      <point x="444" y="-221"/>
      <point x="393" y="-237"/>
      <point x="363" y="-237" type="curve" smooth="yes"/>
      <point x="323" y="-237"/>
      <point x="291" y="-218"/>
      <point x="291" y="-168" type="curve" smooth="yes"/>
      <point x="291" y="-119"/>
      <point x="325" y="-75"/>
      <point x="398" y="-9" type="curve" smooth="yes"/>
      <point x="521" y="102"/>
      <point x="585" y="164"/>
      <point x="585" y="292" type="curve" smooth="yes"/>
      <point x="585" y="468"/>
      <point x="462" y="546"/>
      <point x="326" y="546" type="curve" smooth="yes"/>
      <point x="141" y="546"/>
      <point x="44" y="413"/>
      <point x="44" y="271" type="curve" smooth="yes"/>
      <point x="44" y="161"/>
      <point x="118" y="78"/>
      <point x="200" y="44" type="curve"/>
      <point x="228" y="87" type="line"/>
      <point x="184" y="113"/>
      <point x="130" y="166"/>
      <point x="130" y="283" type="curve" smooth="yes"/>
      <point x="130" y="398"/>
      <point x="186" y="490"/>
      <point x="307" y="490" type="curve" smooth="yes"/>
      <point x="429" y="490"/>
      <point x="499" y="405"/>
      <point x="499" y="300" type="curve" smooth="yes"/>
      <point x="499" y="193"/>
      <point x="432" y="122"/>
      <point x="348" y="46" type="curve" smooth="yes"/>
      <point x="242" y="-50"/>
      <point x="205" y="-96"/>
      <point x="205" y="-163" type="curve" smooth="yes"/>
      <point x="205" y="-239"/>
      <point x="258" y="-293"/>
    </contour>
  </outline>
</glyph>
<glyph name="uni1048" format="2">
  <advance width="659"/>
  <unicode hex="1048"/>
  <outline>
    <contour>
      <point x="215" y="-10" type="curve"/>
      <point x="289" y="50"/>
      <point x="346" y="147"/>
      <point x="346" y="247" type="curve" smooth="yes"/>
      <point x="346" y="329"/>
      <point x="291" y="438"/>
      <point x="218" y="492" type="curve"/>
      <point x="170" y="463" type="line"/>
      <point x="221" y="417"/>
      <point x="260" y="352"/>
      <point x="260" y="233" type="curve" smooth="yes"/>
      <point x="260" y="170"/>
      <point x="244" y="108"/>
      <point x="211" y="63" type="curve"/>
      <point x="170" y="89"/>
      <point x="130" y="169"/>
      <point x="130" y="283" type="curve" smooth="yes"/>
      <point x="130" y="394"/>
      <point x="198" y="490"/>
      <point x="318" y="490" type="curve" smooth="yes"/>
      <point x="440" y="490"/>
      <point x="529" y="395"/>
      <point x="529" y="252" type="curve" smooth="yes"/>
      <point x="529" y="153"/>
      <point x="476" y="69"/>
      <point x="410" y="34" type="curve"/>
      <point x="434" y="-10" type="line"/>
      <point x="538" y="42"/>
      <point x="615" y="152"/>
      <point x="615" y="269" type="curve" smooth="yes"/>
      <point x="615" y="396"/>
      <point x="520" y="546"/>
      <point x="332" y="546" type="curve" smooth="yes"/>
      <point x="146" y="546"/>
      <point x="44" y="400"/>
      <point x="44" y="264" type="curve" smooth="yes"/>
      <point x="44" y="155"/>
      <point x="107" y="28"/>
    </contour>
  </outline>
</glyph>
<glyph name="uni1049" format="2">
  <advance width="670"/>
  <unicode hex="1049"/>
  <outline>
    <contour>
      <point x="340" y="-293" type="curve" smooth="yes"/>
      <point x="447" y="-293"/>
      <point x="519" y="-270"/>
      <point x="607" y="-197" type="curve"/>
      <point x="566" y="-156" type="line"/>
      <point x="500" y="-211"/>
      <point x="433" y="-229"/>
      <point x="340" y="-229" type="curve" smooth="yes"/>
      <point x="162" y="-229"/>
      <point x="135" y="-72"/>
      <point x="135" y="47" type="curve" smooth="yes"/>
      <point x="135" y="250" type="line" smooth="yes"/>
      <point x="135" y="386"/>
      <point x="208" y="490"/>
      <point x="355" y="490" type="curve" smooth="yes"/>
      <point x="487" y="490"/>
      <point x="540" y="419"/>
      <point x="540" y="315" type="curve" smooth="yes"/>
      <point x="540" y="271"/>
      <point x="519" y="247"/>
      <point x="496" y="247" type="curve" smooth="yes"/>
      <point x="450" y="247"/>
      <point x="413" y="266"/>
      <point x="353" y="266" type="curve" smooth="yes"/>
      <point x="264" y="266"/>
      <point x="215" y="208"/>
      <point x="215" y="126" type="curve" smooth="yes"/>
      <point x="215" y="60"/>
      <point x="269" y="-10"/>
      <point x="372" y="-10" type="curve" smooth="yes"/>
      <point x="425" y="-10"/>
      <point x="474" y="1"/>
      <point x="512" y="14" type="curve"/>
      <point x="500" y="60" type="line"/>
      <point x="469" y="52"/>
      <point x="417" y="46"/>
      <point x="382" y="46" type="curve" smooth="yes"/>
      <point x="320" y="46"/>
      <point x="296" y="83"/>
      <point x="296" y="125" type="curve" smooth="yes"/>
      <point x="296" y="174"/>
      <point x="324" y="210"/>
      <point x="364" y="210" type="curve" smooth="yes"/>
      <point x="428" y="210"/>
      <point x="449" y="188"/>
      <point x="520" y="188" type="curve" smooth="yes"/>
      <point x="603" y="188"/>
      <point x="626" y="268"/>
      <point x="626" y="313" type="curve" smooth="yes"/>
      <point x="626" y="444"/>
      <point x="542" y="546"/>
      <point x="335" y="546" type="curve" smooth="yes"/>
      <point x="134" y="546"/>
      <point x="49" y="410"/>
      <point x="49" y="254" type="curve" smooth="yes"/>
      <point x="49" y="57" type="line" smooth="yes"/>
      <point x="49" y="-80"/>
      <point x="95" y="-293"/>
    </contour>
  </outline>
</glyph>
<glyph name="uni1950" format="2">
  <advance width="513"/>
  <unicode hex="1950"/>
  <outline>
    <contour>
      <point x="370" y="-10" type="curve"/>
      <point x="458" y="10" type="line"/>
      <point x="465" y="93"/>
      <point x="469" y="192"/>
      <point x="469" y="252" type="curve" smooth="yes"/>
      <point x="469" y="474"/>
      <point x="417" y="546"/>
      <point x="354" y="546" type="curve" smooth="yes"/>
      <point x="259" y="546"/>
      <point x="160" y="397"/>
      <point x="99" y="361" type="curve"/>
      <point x="95" y="406"/>
      <point x="83" y="449"/>
      <point x="66" y="488" type="curve"/>
      <point x="-10" y="452" type="line"/>
      <point x="7" y="404"/>
      <point x="21" y="333"/>
      <point x="29" y="285" type="curve"/>
      <point x="98" y="287" type="line"/>
      <point x="173" y="319"/>
      <point x="271" y="482"/>
      <point x="327" y="482" type="curve" smooth="yes"/>
      <point x="354" y="482"/>
      <point x="383" y="409"/>
      <point x="383" y="235" type="curve" smooth="yes"/>
      <point x="383" y="171"/>
      <point x="379" y="84"/>
    </contour>
  </outline>
</glyph>
<glyph name="uni1951" format="2">
  <advance width="664"/>
  <unicode hex="1951"/>
  <outline>
    <contour>
      <point x="359" y="-10" type="curve" smooth="yes"/>
      <point x="428" y="-10"/>
      <point x="488" y="15"/>
      <point x="534" y="49" type="curve"/>
      <point x="533" y="-10" type="line"/>
      <point x="618" y="20" type="line"/>
      <point x="619" y="54"/>
      <point x="620" y="112"/>
      <point x="620" y="165" type="curve" smooth="yes"/>
      <point x="620" y="507"/>
      <point x="498" y="546"/>
      <point x="385" y="546" type="curve" smooth="yes"/>
      <point x="316" y="546"/>
      <point x="245" y="500"/>
      <point x="200" y="438" type="curve"/>
      <point x="188" y="480"/>
      <point x="161" y="520"/>
      <point x="101" y="520" type="curve" smooth="yes"/>
      <point x="59" y="520"/>
      <point x="20" y="489"/>
      <point x="-10" y="454" type="curve"/>
      <point x="5" y="414" type="line"/>
      <point x="19" y="439"/>
      <point x="42" y="456"/>
      <point x="75" y="456" type="curve" smooth="yes"/>
      <point x="129" y="456"/>
      <point x="120" y="365"/>
      <point x="122" y="333" type="curve"/>
      <point x="207" y="339" type="line"/>
      <point x="233" y="430"/>
      <point x="301" y="482"/>
      <point x="372" y="482" type="curve" smooth="yes"/>
      <point x="438" y="482"/>
      <point x="497" y="469"/>
      <point x="521" y="329" type="curve"/>
      <point x="506" y="330"/>
      <point x="491" y="330"/>
      <point x="478" y="330" type="curve" smooth="yes"/>
      <point x="280" y="330"/>
      <point x="190" y="243"/>
      <point x="190" y="149" type="curve" smooth="yes"/>
      <point x="190" y="40"/>
      <point x="263" y="-10"/>
    </contour>
    <contour>
      <point x="379" y="54" type="curve" smooth="yes"/>
      <point x="321" y="54"/>
      <point x="281" y="88"/>
      <point x="281" y="148" type="curve" smooth="yes"/>
      <point x="281" y="213"/>
      <point x="334" y="274"/>
      <point x="476" y="274" type="curve" smooth="yes"/>
      <point x="493" y="274"/>
      <point x="510" y="273"/>
      <point x="529" y="271" type="curve"/>
      <point x="532" y="236"/>
      <point x="534" y="195"/>
      <point x="534" y="148" type="curve" smooth="yes"/>
      <point x="534" y="109" type="line"/>
      <point x="496" y="72"/>
      <point x="433" y="54"/>
    </contour>
  </outline>
</glyph>
<glyph name="uni1952" format="2">
  <advance width="536"/>
  <unicode hex="1952"/>
  <outline>
    <contour>
      <point x="58" y="-10" type="curve"/>
      <point x="143" y="10" type="line"/>
      <point x="147" y="72"/>
      <point x="150" y="202"/>
      <point x="150" y="279" type="curve" smooth="yes"/>
      <point x="150" y="310"/>
      <point x="149" y="341"/>
      <point x="148" y="370" type="curve"/>
      <point x="179" y="429"/>
      <point x="236" y="482"/>
      <point x="321" y="482" type="curve" smooth="yes"/>
      <point x="397" y="482"/>
      <point x="406" y="429"/>
      <point x="406" y="302" type="curve" smooth="yes"/>
      <point x="406" y="234"/>
      <point x="397" y="102"/>
      <point x="381" y="-10" type="curve"/>
      <point x="469" y="10" type="line"/>
      <point x="480" y="60"/>
      <point x="492" y="210"/>
      <point x="492" y="296" type="curve" smooth="yes"/>
      <point x="492" y="451"/>
      <point x="474" y="546"/>
      <point x="344" y="546" type="curve" smooth="yes"/>
      <point x="283" y="546"/>
      <point x="197" y="506"/>
      <point x="145" y="443" type="curve"/>
      <point x="142" y="485"/>
      <point x="137" y="521"/>
      <point x="131" y="546" type="curve"/>
      <point x="49" y="528" type="line"/>
      <point x="57" y="491"/>
      <point x="64" y="378"/>
      <point x="64" y="276" type="curve" smooth="yes"/>
      <point x="64" y="167"/>
      <point x="63" y="79"/>
    </contour>
  </outline>
</glyph>
<glyph name="uni1953" format="2">
  <advance width="727"/>
  <unicode hex="1953"/>
  <outline>
    <contour>
      <point x="407" y="-10" type="curve" smooth="yes"/>
      <point x="455" y="-10"/>
      <point x="536" y="24"/>
      <point x="598" y="88" type="curve"/>
      <point x="596" y="50"/>
      <point x="593" y="16"/>
      <point x="588" y="-10" type="curve"/>
      <point x="673" y="10" type="line"/>
      <point x="681" y="96"/>
      <point x="683" y="213"/>
      <point x="683" y="290" type="curve" smooth="yes"/>
      <point x="683" y="448"/>
      <point x="609" y="546"/>
      <point x="465" y="546" type="curve" smooth="yes"/>
      <point x="405" y="546"/>
      <point x="340" y="504"/>
      <point x="290" y="448" type="curve"/>
      <point x="282" y="496"/>
      <point x="260" y="546"/>
      <point x="193" y="546" type="curve" smooth="yes"/>
      <point x="151" y="546"/>
      <point x="112" y="514"/>
      <point x="83" y="478" type="curve"/>
      <point x="81" y="511"/>
      <point x="75" y="541"/>
      <point x="67" y="567" type="curve"/>
      <point x="-10" y="541" type="line"/>
      <point x="0" y="492"/>
      <point x="6" y="424"/>
      <point x="7" y="375" type="curve"/>
      <point x="75" y="378" type="line"/>
      <point x="100" y="448"/>
      <point x="126" y="482"/>
      <point x="159" y="482" type="curve" smooth="yes"/>
      <point x="191" y="482"/>
      <point x="207" y="441"/>
      <point x="207" y="365" type="curve" smooth="yes"/>
      <point x="207" y="269" type="line" smooth="yes"/>
      <point x="207" y="91"/>
      <point x="265" y="-10"/>
    </contour>
    <contour>
      <point x="428" y="54" type="curve" smooth="yes"/>
      <point x="334" y="54"/>
      <point x="293" y="142"/>
      <point x="293" y="269" type="curve" smooth="yes"/>
      <point x="293" y="396"/>
      <point x="346" y="482"/>
      <point x="451" y="482" type="curve" smooth="yes"/>
      <point x="560" y="482"/>
      <point x="597" y="402"/>
      <point x="597" y="275" type="curve" smooth="yes"/>
      <point x="597" y="148"/>
      <point x="551" y="54"/>
    </contour>
  </outline>
</glyph>
<glyph name="uni1954" format="2">
  <advance width="658"/>
  <unicode hex="1954"/>
  <outline>
    <contour>
      <point x="354" y="-10" type="curve" smooth="yes"/>
      <point x="401" y="-10"/>
      <point x="470" y="17"/>
      <point x="520" y="52" type="curve"/>
      <point x="519" y="32"/>
      <point x="517" y="11"/>
      <point x="516" y="-10" type="curve"/>
      <point x="603" y="10" type="line"/>
      <point x="609" y="87"/>
      <point x="614" y="219"/>
      <point x="614" y="296" type="curve" smooth="yes"/>
      <point x="614" y="407"/>
      <point x="604" y="508"/>
      <point x="595" y="546" type="curve"/>
      <point x="515" y="536" type="line"/>
      <point x="524" y="473"/>
      <point x="528" y="389"/>
      <point x="528" y="287" type="curve" smooth="yes"/>
      <point x="528" y="240"/>
      <point x="526" y="179"/>
      <point x="523" y="114" type="curve"/>
      <point x="488" y="82"/>
      <point x="437" y="54"/>
      <point x="377" y="54" type="curve" smooth="yes"/>
      <point x="301" y="54"/>
      <point x="293" y="103"/>
      <point x="293" y="260" type="curve" smooth="yes"/>
      <point x="293" y="306" type="line" smooth="yes"/>
      <point x="293" y="400"/>
      <point x="289" y="546"/>
      <point x="193" y="546" type="curve" smooth="yes"/>
      <point x="151" y="546"/>
      <point x="112" y="514"/>
      <point x="83" y="478" type="curve"/>
      <point x="81" y="511"/>
      <point x="75" y="541"/>
      <point x="67" y="567" type="curve"/>
      <point x="-10" y="541" type="line"/>
      <point x="0" y="492"/>
      <point x="6" y="424"/>
      <point x="7" y="375" type="curve"/>
      <point x="75" y="378" type="line"/>
      <point x="100" y="448"/>
      <point x="126" y="482"/>
      <point x="159" y="482" type="curve" smooth="yes"/>
      <point x="198" y="482"/>
      <point x="207" y="448"/>
      <point x="207" y="325" type="curve" smooth="yes"/>
      <point x="207" y="253" type="line" smooth="yes"/>
      <point x="207" y="79"/>
      <point x="224" y="-10"/>
    </contour>
  </outline>
</glyph>
<glyph name="uni1955" format="2">
  <advance width="608"/>
  <unicode hex="1955"/>
  <outline>
    <contour>
      <point x="137" y="-10" type="curve" smooth="yes"/>
      <point x="201" y="-10"/>
      <point x="246" y="65"/>
      <point x="268" y="115" type="curve"/>
      <point x="288" y="69"/>
      <point x="343" y="-10"/>
      <point x="422" y="-10" type="curve" smooth="yes"/>
      <point x="508" y="-10"/>
      <point x="564" y="62"/>
      <point x="564" y="284" type="curve" smooth="yes"/>
      <point x="564" y="344"/>
      <point x="559" y="467"/>
      <point x="549" y="546" type="curve"/>
      <point x="465" y="536" type="line"/>
      <point x="475" y="442"/>
      <point x="478" y="365"/>
      <point x="478" y="301" type="curve" smooth="yes"/>
      <point x="478" y="127"/>
      <point x="455" y="54"/>
      <point x="428" y="54" type="curve" smooth="yes"/>
      <point x="381" y="54"/>
      <point x="343" y="120"/>
      <point x="306" y="206" type="curve"/>
      <point x="250" y="178" type="line"/>
      <point x="226" y="105"/>
      <point x="186" y="53"/>
      <point x="166" y="53" type="curve" smooth="yes"/>
      <point x="147" y="53"/>
      <point x="143" y="70"/>
      <point x="143" y="233" type="curve" smooth="yes"/>
      <point x="143" y="290" type="line" smooth="yes"/>
      <point x="143" y="356"/>
      <point x="135" y="473"/>
      <point x="127" y="525" type="curve"/>
      <point x="44" y="509" type="line"/>
      <point x="55" y="415"/>
      <point x="57" y="357"/>
      <point x="57" y="298" type="curve" smooth="yes"/>
      <point x="57" y="252" type="line" smooth="yes"/>
      <point x="57" y="78"/>
      <point x="62" y="-10"/>
    </contour>
  </outline>
</glyph>
<glyph name="uni1956" format="2">
  <advance width="902"/>
  <unicode hex="1956"/>
  <outline>
    <contour>
      <point x="256" y="-10" type="curve" smooth="yes"/>
      <point x="304" y="-10"/>
      <point x="385" y="25"/>
      <point x="447" y="88" type="curve"/>
      <point x="446" y="55"/>
      <point x="445" y="22"/>
      <point x="443" y="-10" type="curve"/>
      <point x="528" y="10" type="line"/>
      <point x="532" y="99"/>
      <point x="533" y="238"/>
      <point x="533" y="288" type="curve" smooth="yes"/>
      <point x="533" y="329"/>
      <point x="527" y="366"/>
      <point x="518" y="399" type="curve"/>
      <point x="552" y="439"/>
      <point x="613" y="482"/>
      <point x="687" y="482" type="curve" smooth="yes"/>
      <point x="763" y="482"/>
      <point x="772" y="429"/>
      <point x="772" y="302" type="curve" smooth="yes"/>
      <point x="772" y="234"/>
      <point x="763" y="102"/>
      <point x="747" y="-10" type="curve"/>
      <point x="835" y="10" type="line"/>
      <point x="848" y="99"/>
      <point x="858" y="217"/>
      <point x="858" y="283" type="curve" smooth="yes"/>
      <point x="858" y="457"/>
      <point x="840" y="546"/>
      <point x="710" y="546" type="curve" smooth="yes"/>
      <point x="650" y="546"/>
      <point x="565" y="516"/>
      <point x="495" y="452" type="curve"/>
      <point x="460" y="512"/>
      <point x="399" y="546"/>
      <point x="314" y="546" type="curve" smooth="yes"/>
      <point x="255" y="546"/>
      <point x="191" y="505"/>
      <point x="141" y="450" type="curve"/>
      <point x="139" y="478"/>
      <point x="135" y="511"/>
      <point x="127" y="542" type="curve"/>
      <point x="44" y="506" type="line"/>
      <point x="52" y="461"/>
      <point x="57" y="404"/>
      <point x="57" y="365" type="curve" smooth="yes"/>
      <point x="57" y="269" type="line" smooth="yes"/>
      <point x="57" y="91"/>
      <point x="115" y="-10"/>
    </contour>
    <contour>
      <point x="277" y="54" type="curve" smooth="yes"/>
      <point x="184" y="54"/>
      <point x="143" y="142"/>
      <point x="143" y="269" type="curve" smooth="yes"/>
      <point x="143" y="396"/>
      <point x="195" y="482"/>
      <point x="300" y="482" type="curve" smooth="yes"/>
      <point x="410" y="482"/>
      <point x="447" y="402"/>
      <point x="447" y="275" type="curve" smooth="yes"/>
      <point x="447" y="148"/>
      <point x="401" y="54"/>
    </contour>
  </outline>
</glyph>
<glyph name="uni1957" format="2">
  <advance width="967"/>
  <unicode hex="1957"/>
  <outline>
    <contour>
      <point x="256" y="-10" type="curve" smooth="yes"/>
      <point x="310" y="-10"/>
      <point x="405" y="34"/>
      <point x="469" y="112" type="curve"/>
      <point x="497" y="33"/>
      <point x="554" y="-10"/>
      <point x="646" y="-10" type="curve" smooth="yes"/>
      <point x="694" y="-10"/>
      <point x="775" y="25"/>
      <point x="837" y="88" type="curve"/>
      <point x="836" y="55"/>
      <point x="835" y="22"/>
      <point x="833" y="-10" type="curve"/>
      <point x="918" y="10" type="line"/>
      <point x="922" y="96"/>
      <point x="923" y="197"/>
      <point x="923" y="288" type="curve" smooth="yes"/>
      <point x="923" y="448"/>
      <point x="850" y="546"/>
      <point x="705" y="546" type="curve" smooth="yes"/>
      <point x="637" y="546"/>
      <point x="561" y="492"/>
      <point x="509" y="423" type="curve"/>
      <point x="477" y="501"/>
      <point x="412" y="546"/>
      <point x="314" y="546" type="curve" smooth="yes"/>
      <point x="255" y="546"/>
      <point x="191" y="505"/>
      <point x="141" y="450" type="curve"/>
      <point x="139" y="478"/>
      <point x="135" y="511"/>
      <point x="127" y="542" type="curve"/>
      <point x="44" y="506" type="line"/>
      <point x="52" y="461"/>
      <point x="57" y="404"/>
      <point x="57" y="365" type="curve" smooth="yes"/>
      <point x="57" y="269" type="line" smooth="yes"/>
      <point x="57" y="91"/>
      <point x="115" y="-10"/>
    </contour>
    <contour>
      <point x="277" y="54" type="curve" smooth="yes"/>
      <point x="184" y="54"/>
      <point x="143" y="142"/>
      <point x="143" y="269" type="curve" smooth="yes"/>
      <point x="143" y="396"/>
      <point x="195" y="482"/>
      <point x="300" y="482" type="curve" smooth="yes"/>
      <point x="410" y="482"/>
      <point x="447" y="402"/>
      <point x="447" y="275" type="curve" smooth="yes"/>
      <point x="447" y="148"/>
      <point x="401" y="54"/>
    </contour>
    <contour>
      <point x="667" y="54" type="curve" smooth="yes"/>
      <point x="574" y="54"/>
      <point x="533" y="142"/>
      <point x="533" y="269" type="curve" smooth="yes"/>
      <point x="533" y="396"/>
      <point x="585" y="482"/>
      <point x="690" y="482" type="curve" smooth="yes"/>
      <point x="800" y="482"/>
      <point x="837" y="402"/>
      <point x="837" y="275" type="curve" smooth="yes"/>
      <point x="837" y="148"/>
      <point x="791" y="54"/>
    </contour>
  </outline>
</glyph>
<glyph name="uni1958" format="2">
  <advance width="569"/>
  <unicode hex="1958"/>
  <outline>
    <contour>
      <point x="104" y="-10" type="curve" smooth="yes"/>
      <point x="148" y="-10"/>
      <point x="212" y="21"/>
      <point x="254" y="57" type="curve"/>
      <point x="268" y="37"/>
      <point x="288" y="27"/>
      <point x="313" y="27" type="curve" smooth="yes"/>
      <point x="348" y="27"/>
      <point x="394" y="46"/>
      <point x="433" y="71" type="curve"/>
      <point x="431" y="45"/>
      <point x="428" y="18"/>
      <point x="425" y="-10" type="curve"/>
      <point x="513" y="10" type="line"/>
      <point x="520" y="70"/>
      <point x="525" y="198"/>
      <point x="525" y="258" type="curve" smooth="yes"/>
      <point x="525" y="368"/>
      <point x="506" y="490"/>
      <point x="488" y="546" type="curve"/>
      <point x="407" y="528" type="line"/>
      <point x="425" y="481"/>
      <point x="439" y="317"/>
      <point x="439" y="235" type="curve" smooth="yes"/>
      <point x="439" y="203"/>
      <point x="438" y="164"/>
      <point x="436" y="122" type="curve"/>
      <point x="406" y="100"/>
      <point x="371" y="90"/>
      <point x="347" y="90" type="curve" smooth="yes"/>
      <point x="325" y="90"/>
      <point x="307" y="101"/>
      <point x="305" y="192" type="curve"/>
      <point x="224" y="178" type="line"/>
      <point x="226" y="143"/>
      <point x="229" y="115"/>
      <point x="237" y="92" type="curve"/>
      <point x="205" y="64"/>
      <point x="165" y="53"/>
      <point x="138" y="53" type="curve" smooth="yes"/>
      <point x="115" y="53"/>
      <point x="97" y="64"/>
      <point x="96" y="155" type="curve"/>
      <point x="15" y="141" type="line"/>
      <point x="19" y="40"/>
      <point x="46" y="-10"/>
    </contour>
  </outline>
</glyph>
<glyph name="uni1959" format="2">
  <advance width="520"/>
  <unicode hex="1959"/>
  <outline>
    <contour>
      <point x="210" y="-10" type="curve" smooth="yes"/>
      <point x="259" y="-10"/>
      <point x="330" y="18"/>
      <point x="382" y="53" type="curve"/>
      <point x="377" y="-10" type="line"/>
      <point x="464" y="10" type="line"/>
      <point x="471" y="87"/>
      <point x="476" y="195"/>
      <point x="476" y="271" type="curve" smooth="yes"/>
      <point x="476" y="382"/>
      <point x="469" y="494"/>
      <point x="457" y="546" type="curve"/>
      <point x="377" y="536" type="line"/>
      <point x="386" y="473"/>
      <point x="390" y="364"/>
      <point x="390" y="263" type="curve" smooth="yes"/>
      <point x="390" y="218"/>
      <point x="389" y="170"/>
      <point x="386" y="116" type="curve"/>
      <point x="349" y="83"/>
      <point x="294" y="54"/>
      <point x="234" y="54" type="curve" smooth="yes"/>
      <point x="158" y="54"/>
      <point x="145" y="103"/>
      <point x="145" y="260" type="curve" smooth="yes"/>
      <point x="145" y="279" type="line" smooth="yes"/>
      <point x="145" y="390"/>
      <point x="139" y="492"/>
      <point x="126" y="546" type="curve"/>
      <point x="44" y="528" type="line"/>
      <point x="52" y="491"/>
      <point x="59" y="378"/>
      <point x="59" y="276" type="curve" smooth="yes"/>
      <point x="59" y="253" type="line" smooth="yes"/>
      <point x="59" y="79"/>
      <point x="81" y="-10"/>
    </contour>
  </outline>
</glyph>
<glyph name="uni195A" format="2">
  <advance width="831"/>
  <unicode hex="195A"/>
  <outline>
    <contour>
      <point x="208" y="-10" type="curve" smooth="yes"/>
      <point x="263" y="-10"/>
      <point x="348" y="26"/>
      <point x="399" y="69" type="curve"/>
      <point x="428" y="23"/>
      <point x="471" y="-10"/>
      <point x="534" y="-10" type="curve" smooth="yes"/>
      <point x="586" y="-10"/>
      <point x="634" y="13"/>
      <point x="699" y="77" type="curve"/>
      <point x="698" y="45"/>
      <point x="695" y="16"/>
      <point x="692" y="-10" type="curve"/>
      <point x="777" y="10" type="line"/>
      <point x="783" y="80"/>
      <point x="787" y="140"/>
      <point x="787" y="179" type="curve" smooth="yes"/>
      <point x="787" y="192" type="line" smooth="yes"/>
      <point x="787" y="313"/>
      <point x="729" y="449"/>
      <point x="589" y="449" type="curve" smooth="yes"/>
      <point x="521" y="449"/>
      <point x="462" y="404"/>
      <point x="432" y="352" type="curve"/>
      <point x="432" y="450"/>
      <point x="444" y="500"/>
      <point x="483" y="500" type="curve" smooth="yes"/>
      <point x="502" y="500"/>
      <point x="516" y="494"/>
      <point x="526" y="490" type="curve"/>
      <point x="543" y="523" type="line"/>
      <point x="513" y="540"/>
      <point x="491" y="546"/>
      <point x="477" y="546" type="curve" smooth="yes"/>
      <point x="359" y="546"/>
      <point x="352" y="348"/>
      <point x="352" y="296" type="curve" smooth="yes"/>
      <point x="352" y="257" type="line" smooth="yes"/>
      <point x="352" y="215"/>
      <point x="359" y="160"/>
      <point x="378" y="112" type="curve"/>
      <point x="341" y="80"/>
      <point x="289" y="54"/>
      <point x="231" y="54" type="curve" smooth="yes"/>
      <point x="155" y="54"/>
      <point x="142" y="103"/>
      <point x="142" y="260" type="curve" smooth="yes"/>
      <point x="142" y="279" type="line" smooth="yes"/>
      <point x="142" y="381"/>
      <point x="137" y="477"/>
      <point x="126" y="533" type="curve"/>
      <point x="44" y="513" type="line"/>
      <point x="51" y="466"/>
      <point x="56" y="367"/>
      <point x="56" y="276" type="curve" smooth="yes"/>
      <point x="56" y="253" type="line" smooth="yes"/>
      <point x="56" y="79"/>
      <point x="78" y="-10"/>
    </contour>
    <contour>
      <point x="555" y="54" type="curve" smooth="yes"/>
      <point x="474" y="54"/>
      <point x="438" y="141"/>
      <point x="438" y="234" type="curve" smooth="yes"/>
      <point x="438" y="333"/>
      <point x="504" y="396"/>
      <point x="581" y="396" type="curve" smooth="yes"/>
      <point x="658" y="396"/>
      <point x="701" y="327"/>
      <point x="701" y="234" type="curve" smooth="yes"/>
      <point x="701" y="142"/>
      <point x="650" y="54"/>
    </contour>
  </outline>
</glyph>
<glyph name="uni195B" format="2">
  <advance width="509"/>
  <unicode hex="195B"/>
  <outline>
    <contour>
      <point x="201" y="-10" type="curve" smooth="yes"/>
      <point x="249" y="-10"/>
      <point x="322" y="18"/>
      <point x="374" y="53" type="curve"/>
      <point x="373" y="32"/>
      <point x="372" y="11"/>
      <point x="370" y="-10" type="curve"/>
      <point x="455" y="10" type="line"/>
      <point x="461" y="87"/>
      <point x="465" y="227"/>
      <point x="465" y="304" type="curve" smooth="yes"/>
      <point x="465" y="415"/>
      <point x="458" y="508"/>
      <point x="450" y="546" type="curve"/>
      <point x="370" y="536" type="line"/>
      <point x="375" y="495"/>
      <point x="378" y="448"/>
      <point x="379" y="392" type="curve"/>
      <point x="297" y="375"/>
      <point x="219" y="364"/>
      <point x="139" y="355" type="curve"/>
      <point x="138" y="407"/>
      <point x="133" y="471"/>
      <point x="120" y="520" type="curve"/>
      <point x="44" y="500" type="line"/>
      <point x="51" y="462"/>
      <point x="54" y="403"/>
      <point x="54" y="325" type="curve" smooth="yes"/>
      <point x="54" y="253" type="line" smooth="yes"/>
      <point x="54" y="79"/>
      <point x="71" y="-10"/>
    </contour>
    <contour>
      <point x="224" y="54" type="curve" smooth="yes"/>
      <point x="148" y="54"/>
      <point x="140" y="103"/>
      <point x="140" y="260" type="curve" smooth="yes"/>
      <point x="140" y="288" type="line"/>
      <point x="211" y="301"/>
      <point x="314" y="322"/>
      <point x="379" y="340" type="curve"/>
      <point x="379" y="295" type="line" smooth="yes"/>
      <point x="379" y="248"/>
      <point x="379" y="183"/>
      <point x="376" y="115" type="curve"/>
      <point x="339" y="83"/>
      <point x="284" y="54"/>
    </contour>
  </outline>
</glyph>
<glyph name="uni195C" format="2">
  <advance width="831"/>
  <unicode hex="195C"/>
  <outline>
    <contour>
      <point x="561" y="-181" type="curve" smooth="yes"/>
      <point x="779" y="-181"/>
      <point x="787" y="114"/>
      <point x="787" y="199" type="curve" smooth="yes"/>
      <point x="787" y="294"/>
      <point x="746" y="449"/>
      <point x="581" y="449" type="curve" smooth="yes"/>
      <point x="520" y="449"/>
      <point x="463" y="408"/>
      <point x="432" y="352" type="curve"/>
      <point x="432" y="450"/>
      <point x="441" y="500"/>
      <point x="486" y="500" type="curve" smooth="yes"/>
      <point x="505" y="500"/>
      <point x="516" y="494"/>
      <point x="526" y="490" type="curve"/>
      <point x="543" y="523" type="line"/>
      <point x="513" y="540"/>
      <point x="491" y="546"/>
      <point x="477" y="546" type="curve" smooth="yes"/>
      <point x="359" y="546"/>
      <point x="352" y="348"/>
      <point x="352" y="296" type="curve" smooth="yes"/>
      <point x="352" y="263" type="line" smooth="yes"/>
      <point x="352" y="210"/>
      <point x="359" y="156"/>
      <point x="377" y="111" type="curve"/>
      <point x="340" y="80"/>
      <point x="289" y="54"/>
      <point x="231" y="54" type="curve" smooth="yes"/>
      <point x="155" y="54"/>
      <point x="142" y="103"/>
      <point x="142" y="260" type="curve" smooth="yes"/>
      <point x="142" y="279" type="line" smooth="yes"/>
      <point x="142" y="381"/>
      <point x="137" y="477"/>
      <point x="126" y="533" type="curve"/>
      <point x="44" y="513" type="line"/>
      <point x="51" y="466"/>
      <point x="56" y="367"/>
      <point x="56" y="276" type="curve" smooth="yes"/>
      <point x="56" y="253" type="line" smooth="yes"/>
      <point x="56" y="79"/>
      <point x="78" y="-10"/>
      <point x="208" y="-10" type="curve" smooth="yes"/>
      <point x="262" y="-10"/>
      <point x="347" y="26"/>
      <point x="398" y="68" type="curve"/>
      <point x="428" y="21"/>
      <point x="475" y="-10"/>
      <point x="542" y="-10" type="curve" smooth="yes"/>
      <point x="599" y="-10"/>
      <point x="651" y="14"/>
      <point x="701" y="65" type="curve"/>
      <point x="689" y="-76"/>
      <point x="636" y="-125"/>
      <point x="553" y="-125" type="curve" smooth="yes"/>
      <point x="513" y="-125"/>
      <point x="460" y="-114"/>
      <point x="426" y="-99" type="curve"/>
      <point x="426" y="-154" type="line"/>
      <point x="458" y="-168"/>
      <point x="511" y="-181"/>
    </contour>
    <contour>
      <point x="555" y="54" type="curve" smooth="yes"/>
      <point x="474" y="54"/>
      <point x="438" y="141"/>
      <point x="438" y="234" type="curve" smooth="yes"/>
      <point x="438" y="333"/>
      <point x="504" y="396"/>
      <point x="581" y="396" type="curve" smooth="yes"/>
      <point x="658" y="396"/>
      <point x="701" y="327"/>
      <point x="701" y="234" type="curve" smooth="yes"/>
      <point x="701" y="142"/>
      <point x="650" y="54"/>
    </contour>
  </outline>
</glyph>
<glyph name="uni195D" format="2">
  <advance width="577"/>
  <unicode hex="195D"/>
  <outline>
    <contour>
      <point x="256" y="-10" type="curve" smooth="yes"/>
      <point x="304" y="-10"/>
      <point x="385" y="25"/>
      <point x="447" y="88" type="curve"/>
      <point x="446" y="55"/>
      <point x="445" y="22"/>
      <point x="443" y="-10" type="curve"/>
      <point x="528" y="10" type="line"/>
      <point x="531" y="106"/>
      <point x="533" y="197"/>
      <point x="533" y="288" type="curve" smooth="yes"/>
      <point x="533" y="448"/>
      <point x="459" y="546"/>
      <point x="314" y="546" type="curve" smooth="yes"/>
      <point x="255" y="546"/>
      <point x="191" y="505"/>
      <point x="141" y="450" type="curve"/>
      <point x="139" y="478"/>
      <point x="135" y="511"/>
      <point x="127" y="542" type="curve"/>
      <point x="44" y="506" type="line"/>
      <point x="52" y="461"/>
      <point x="57" y="404"/>
      <point x="57" y="365" type="curve" smooth="yes"/>
      <point x="57" y="269" type="line" smooth="yes"/>
      <point x="57" y="91"/>
      <point x="115" y="-10"/>
    </contour>
    <contour>
      <point x="277" y="54" type="curve" smooth="yes"/>
      <point x="184" y="54"/>
      <point x="143" y="142"/>
      <point x="143" y="269" type="curve" smooth="yes"/>
      <point x="143" y="396"/>
      <point x="195" y="482"/>
      <point x="300" y="482" type="curve" smooth="yes"/>
      <point x="410" y="482"/>
      <point x="447" y="402"/>
      <point x="447" y="275" type="curve" smooth="yes"/>
      <point x="447" y="148"/>
      <point x="401" y="54"/>
    </contour>
  </outline>
</glyph>
<glyph name="uni195E" format="2">
  <advance width="849"/>
  <unicode hex="195E"/>
  <outline>
    <contour>
      <point x="258" y="-181" type="curve" smooth="yes"/>
      <point x="420" y="-181"/>
      <point x="499" y="-42"/>
      <point x="499" y="207" type="curve" smooth="yes"/>
      <point x="499" y="268" type="line" smooth="yes"/>
      <point x="499" y="310"/>
      <point x="493" y="357"/>
      <point x="479" y="400" type="curve"/>
      <point x="512" y="446"/>
      <point x="563" y="482"/>
      <point x="633" y="482" type="curve" smooth="yes"/>
      <point x="709" y="482"/>
      <point x="719" y="429"/>
      <point x="719" y="302" type="curve" smooth="yes"/>
      <point x="719" y="234"/>
      <point x="709" y="102"/>
      <point x="694" y="-10" type="curve"/>
      <point x="782" y="10" type="line"/>
      <point x="792" y="60"/>
      <point x="805" y="210"/>
      <point x="805" y="296" type="curve" smooth="yes"/>
      <point x="805" y="451"/>
      <point x="787" y="546"/>
      <point x="657" y="546" type="curve" smooth="yes"/>
      <point x="596" y="546"/>
      <point x="512" y="507"/>
      <point x="460" y="446" type="curve"/>
      <point x="430" y="503"/>
      <point x="379" y="546"/>
      <point x="300" y="546" type="curve" smooth="yes"/>
      <point x="230" y="546"/>
      <point x="169" y="496"/>
      <point x="140" y="446" type="curve"/>
      <point x="138" y="473"/>
      <point x="134" y="513"/>
      <point x="127" y="542" type="curve"/>
      <point x="44" y="506" type="line"/>
      <point x="52" y="461"/>
      <point x="57" y="404"/>
      <point x="57" y="365" type="curve" smooth="yes"/>
      <point x="57" y="281" type="line" smooth="yes"/>
      <point x="57" y="181"/>
      <point x="110" y="29"/>
      <point x="252" y="29" type="curve" smooth="yes"/>
      <point x="294" y="29"/>
      <point x="367" y="58"/>
      <point x="416" y="115" type="curve"/>
      <point x="404" y="-94"/>
      <point x="346" y="-125"/>
      <point x="250" y="-125" type="curve" smooth="yes"/>
      <point x="220" y="-125"/>
      <point x="157" y="-110"/>
      <point x="132" y="-99" type="curve"/>
      <point x="132" y="-151" type="line"/>
      <point x="164" y="-169"/>
      <point x="232" y="-181"/>
    </contour>
    <contour>
      <point x="260" y="93" type="curve" smooth="yes"/>
      <point x="166" y="93"/>
      <point x="143" y="189"/>
      <point x="143" y="268" type="curve" smooth="yes"/>
      <point x="143" y="395"/>
      <point x="199" y="487"/>
      <point x="286" y="487" type="curve" smooth="yes"/>
      <point x="370" y="487"/>
      <point x="413" y="418"/>
      <point x="413" y="325" type="curve" smooth="yes"/>
      <point x="413" y="208"/>
      <point x="383" y="93"/>
    </contour>
  </outline>
</glyph>
<glyph name="uni195F" format="2">
  <advance width="680"/>
  <unicode hex="195F"/>
  <outline>
    <contour>
      <point x="110" y="-127" type="curve" smooth="yes"/>
      <point x="256" y="-127"/>
      <point x="293" y="26"/>
      <point x="293" y="271" type="curve" smooth="yes"/>
      <point x="293" y="306" type="line" smooth="yes"/>
      <point x="293" y="325"/>
      <point x="292" y="347"/>
      <point x="292" y="370" type="curve"/>
      <point x="321" y="428"/>
      <point x="379" y="482"/>
      <point x="464" y="482" type="curve" smooth="yes"/>
      <point x="541" y="482"/>
      <point x="550" y="429"/>
      <point x="550" y="302" type="curve" smooth="yes"/>
      <point x="550" y="234"/>
      <point x="541" y="102"/>
      <point x="525" y="-10" type="curve"/>
      <point x="613" y="10" type="line"/>
      <point x="624" y="60"/>
      <point x="636" y="210"/>
      <point x="636" y="296" type="curve" smooth="yes"/>
      <point x="636" y="451"/>
      <point x="618" y="546"/>
      <point x="488" y="546" type="curve" smooth="yes"/>
      <point x="425" y="546"/>
      <point x="335" y="503"/>
      <point x="284" y="438" type="curve"/>
      <point x="273" y="497"/>
      <point x="248" y="546"/>
      <point x="193" y="546" type="curve" smooth="yes"/>
      <point x="151" y="546"/>
      <point x="112" y="514"/>
      <point x="83" y="478" type="curve"/>
      <point x="81" y="511"/>
      <point x="75" y="541"/>
      <point x="67" y="567" type="curve"/>
      <point x="-10" y="541" type="line"/>
      <point x="0" y="492"/>
      <point x="6" y="424"/>
      <point x="7" y="375" type="curve"/>
      <point x="75" y="378" type="line"/>
      <point x="100" y="448"/>
      <point x="126" y="482"/>
      <point x="159" y="482" type="curve" smooth="yes"/>
      <point x="198" y="482"/>
      <point x="207" y="448"/>
      <point x="207" y="325" type="curve" smooth="yes"/>
      <point x="207" y="279" type="line" smooth="yes"/>
      <point x="207" y="-11"/>
      <point x="203" y="-71"/>
      <point x="105" y="-71" type="curve" smooth="yes"/>
      <point x="74" y="-71"/>
      <point x="45" y="-63"/>
      <point x="20" y="-51" type="curve"/>
      <point x="20" y="-104" type="line"/>
      <point x="44" y="-115"/>
      <point x="79" y="-127"/>
    </contour>
  </outline>
</glyph>
<glyph name="uni1960" format="2">
  <advance width="508"/>
  <unicode hex="1960"/>
  <outline>
    <contour>
      <point x="246" y="-239" type="curve" smooth="yes"/>
      <point x="458" y="-239"/>
      <point x="464" y="43"/>
      <point x="464" y="159" type="curve" smooth="yes"/>
      <point x="464" y="467"/>
      <point x="385" y="546"/>
      <point x="283" y="546" type="curve" smooth="yes"/>
      <point x="226" y="546"/>
      <point x="174" y="523"/>
      <point x="136" y="479" type="curve"/>
      <point x="134" y="512"/>
      <point x="128" y="542"/>
      <point x="121" y="567" type="curve"/>
      <point x="44" y="541" type="line"/>
      <point x="54" y="492"/>
      <point x="60" y="424"/>
      <point x="61" y="375" type="curve"/>
      <point x="129" y="378" type="line"/>
      <point x="150" y="450"/>
      <point x="190" y="482"/>
      <point x="247" y="482" type="curve" smooth="yes"/>
      <point x="320" y="482"/>
      <point x="356" y="450"/>
      <point x="370" y="329" type="curve"/>
      <point x="358" y="329"/>
      <point x="346" y="330"/>
      <point x="336" y="330" type="curve" smooth="yes"/>
      <point x="139" y="330"/>
      <point x="49" y="243"/>
      <point x="49" y="149" type="curve" smooth="yes"/>
      <point x="49" y="40"/>
      <point x="121" y="-10"/>
      <point x="218" y="-10" type="curve" smooth="yes"/>
      <point x="275" y="-10"/>
      <point x="331" y="8"/>
      <point x="375" y="35" type="curve"/>
      <point x="365" y="-145"/>
      <point x="331" y="-183"/>
      <point x="235" y="-183" type="curve" smooth="yes"/>
      <point x="185" y="-183"/>
      <point x="128" y="-166"/>
      <point x="103" y="-142" type="curve"/>
      <point x="103" y="-197" type="line"/>
      <point x="125" y="-215"/>
      <point x="181" y="-239"/>
    </contour>
    <contour>
      <point x="238" y="54" type="curve" smooth="yes"/>
      <point x="180" y="54"/>
      <point x="139" y="88"/>
      <point x="139" y="148" type="curve" smooth="yes"/>
      <point x="139" y="213"/>
      <point x="192" y="274"/>
      <point x="334" y="274" type="curve" smooth="yes"/>
      <point x="346" y="274"/>
      <point x="360" y="273"/>
      <point x="375" y="272" type="curve"/>
      <point x="376" y="242"/>
      <point x="377" y="207"/>
      <point x="377" y="167" type="curve" smooth="yes"/>
      <point x="377" y="141"/>
      <point x="377" y="118"/>
      <point x="376" y="96" type="curve"/>
      <point x="338" y="67"/>
      <point x="285" y="54"/>
    </contour>
  </outline>
</glyph>
<glyph name="uni1961" format="2">
  <advance width="655"/>
  <unicode hex="1961"/>
  <outline>
    <contour>
      <point x="377" y="-239" type="curve" smooth="yes"/>
      <point x="562" y="-239"/>
      <point x="611" y="-60"/>
      <point x="611" y="186" type="curve" smooth="yes"/>
      <point x="611" y="211" type="line" smooth="yes"/>
      <point x="611" y="322"/>
      <point x="604" y="484"/>
      <point x="595" y="521" type="curve"/>
      <point x="515" y="512" type="line"/>
      <point x="524" y="448"/>
      <point x="525" y="290"/>
      <point x="525" y="188" type="curve" smooth="yes"/>
      <point x="525" y="116" type="line"/>
      <point x="489" y="83"/>
      <point x="437" y="54"/>
      <point x="377" y="54" type="curve" smooth="yes"/>
      <point x="301" y="54"/>
      <point x="293" y="103"/>
      <point x="293" y="260" type="curve" smooth="yes"/>
      <point x="293" y="306" type="line" smooth="yes"/>
      <point x="293" y="400"/>
      <point x="289" y="546"/>
      <point x="193" y="546" type="curve" smooth="yes"/>
      <point x="151" y="546"/>
      <point x="112" y="514"/>
      <point x="83" y="478" type="curve"/>
      <point x="81" y="511"/>
      <point x="75" y="541"/>
      <point x="67" y="567" type="curve"/>
      <point x="-10" y="541" type="line"/>
      <point x="0" y="492"/>
      <point x="6" y="424"/>
      <point x="7" y="375" type="curve"/>
      <point x="75" y="378" type="line"/>
      <point x="100" y="448"/>
      <point x="126" y="482"/>
      <point x="159" y="482" type="curve" smooth="yes"/>
      <point x="198" y="482"/>
      <point x="207" y="448"/>
      <point x="207" y="325" type="curve" smooth="yes"/>
      <point x="207" y="253" type="line" smooth="yes"/>
      <point x="207" y="79"/>
      <point x="224" y="-10"/>
      <point x="354" y="-10" type="curve" smooth="yes"/>
      <point x="403" y="-10"/>
      <point x="474" y="19"/>
      <point x="524" y="56" type="curve"/>
      <point x="520" y="-93"/>
      <point x="492" y="-183"/>
      <point x="372" y="-183" type="curve" smooth="yes"/>
      <point x="318" y="-183"/>
      <point x="265" y="-166"/>
      <point x="239" y="-142" type="curve"/>
      <point x="239" y="-197" type="line"/>
      <point x="262" y="-215"/>
      <point x="324" y="-239"/>
    </contour>
  </outline>
</glyph>
<glyph name="uni1962" format="2">
  <advance width="536"/>
  <unicode hex="1962"/>
  <outline>
    <contour>
      <point x="58" y="-10" type="curve"/>
      <point x="142" y="9" type="line"/>
      <point x="167" y="71"/>
      <point x="318" y="366"/>
      <point x="399" y="450" type="curve"/>
      <point x="403" y="408"/>
      <point x="406" y="349"/>
      <point x="406" y="276" type="curve" smooth="yes"/>
      <point x="406" y="167"/>
      <point x="404" y="79"/>
      <point x="399" y="-10" type="curve"/>
      <point x="484" y="10" type="line"/>
      <point x="489" y="72"/>
      <point x="492" y="202"/>
      <point x="492" y="279" type="curve" smooth="yes"/>
      <point x="492" y="377"/>
      <point x="491" y="452"/>
      <point x="479" y="504" type="curve" smooth="yes"/>
      <point x="470" y="543"/>
      <point x="460" y="546"/>
      <point x="435" y="546" type="curve" smooth="yes"/>
      <point x="367" y="546"/>
      <point x="206" y="242"/>
      <point x="147" y="120" type="curve"/>
      <point x="149" y="176"/>
      <point x="150" y="235"/>
      <point x="150" y="279" type="curve" smooth="yes"/>
      <point x="150" y="390"/>
      <point x="144" y="492"/>
      <point x="131" y="546" type="curve"/>
      <point x="49" y="528" type="line"/>
      <point x="57" y="491"/>
      <point x="64" y="378"/>
      <point x="64" y="276" type="curve" smooth="yes"/>
      <point x="64" y="167"/>
      <point x="63" y="79"/>
    </contour>
  </outline>
</glyph>
<glyph name="uni1963" format="2">
  <advance width="239"/>
  <unicode hex="1963"/>
  <outline>
    <contour>
      <point x="239" y="-10" type="curve"/>
      <point x="239" y="42" type="line"/>
      <point x="164" y="52"/>
      <point x="150" y="69"/>
      <point x="150" y="202" type="curve" smooth="yes"/>
      <point x="150" y="644" type="line" smooth="yes"/>
      <point x="150" y="705"/>
      <point x="146" y="827"/>
      <point x="121" y="894" type="curve"/>
      <point x="44" y="879" type="line"/>
      <point x="59" y="846"/>
      <point x="64" y="769"/>
      <point x="64" y="663" type="curve" smooth="yes"/>
      <point x="64" y="207" type="line" smooth="yes"/>
      <point x="64" y="41"/>
      <point x="96" y="-3"/>
    </contour>
  </outline>
</glyph>
<glyph name="uni1964" format="2">
  <advance width="549"/>
  <unicode hex="1964"/>
  <outline>
    <contour>
      <point x="68" y="-10" type="curve"/>
      <point x="154" y="10" type="line"/>
      <point x="142" y="75"/>
      <point x="135" y="219"/>
      <point x="135" y="359" type="curve" smooth="yes"/>
      <point x="135" y="536" type="line" smooth="yes"/>
      <point x="135" y="646"/>
      <point x="144" y="845"/>
      <point x="271" y="845" type="curve" smooth="yes"/>
      <point x="382" y="845"/>
      <point x="417" y="734"/>
      <point x="417" y="431" type="curve"/>
      <point x="257" y="412"/>
      <point x="198" y="301"/>
      <point x="198" y="193" type="curve" smooth="yes"/>
      <point x="198" y="84"/>
      <point x="270" y="-10"/>
      <point x="401" y="-10" type="curve" smooth="yes"/>
      <point x="431" y="-10"/>
      <point x="465" y="-6"/>
      <point x="488" y="-1" type="curve"/>
      <point x="498" y="88"/>
      <point x="500" y="286"/>
      <point x="500" y="445" type="curve" smooth="yes"/>
      <point x="500" y="760"/>
      <point x="433" y="908"/>
      <point x="271" y="908" type="curve" smooth="yes"/>
      <point x="104" y="908"/>
      <point x="49" y="711"/>
      <point x="49" y="526" type="curve" smooth="yes"/>
      <point x="49" y="361" type="line" smooth="yes"/>
      <point x="49" y="252"/>
      <point x="59" y="58"/>
    </contour>
    <contour>
      <point x="408" y="46" type="curve"/>
      <point x="355" y="46"/>
      <point x="286" y="83"/>
      <point x="286" y="195" type="curve" smooth="yes"/>
      <point x="286" y="277"/>
      <point x="315" y="355"/>
      <point x="416" y="374" type="curve"/>
      <point x="416" y="250"/>
      <point x="413" y="121"/>
    </contour>
  </outline>
</glyph>
<glyph name="uni1965" format="2">
  <advance width="514"/>
  <unicode hex="1965"/>
  <outline>
    <contour>
      <point x="63" y="-10" type="curve"/>
      <point x="149" y="10" type="line"/>
      <point x="144" y="80"/>
      <point x="135" y="209"/>
      <point x="135" y="350" type="curve" smooth="yes"/>
      <point x="135" y="546" type="line" smooth="yes"/>
      <point x="135" y="701"/>
      <point x="161" y="845"/>
      <point x="253" y="845" type="curve" smooth="yes"/>
      <point x="332" y="845"/>
      <point x="381" y="749"/>
      <point x="381" y="452" type="curve" smooth="yes"/>
      <point x="381" y="278"/>
      <point x="377" y="168"/>
      <point x="375" y="122" type="curve"/>
      <point x="460" y="142" type="line"/>
      <point x="460" y="187"/>
      <point x="465" y="297"/>
      <point x="465" y="459" type="curve" smooth="yes"/>
      <point x="465" y="771"/>
      <point x="396" y="908"/>
      <point x="253" y="908" type="curve" smooth="yes"/>
      <point x="92" y="908"/>
      <point x="49" y="693"/>
      <point x="49" y="536" type="curve" smooth="yes"/>
      <point x="49" y="351" type="line" smooth="yes"/>
      <point x="49" y="242"/>
      <point x="58" y="60"/>
    </contour>
  </outline>
</glyph>
<glyph name="uni1966" format="2">
  <advance width="549"/>
  <unicode hex="1966"/>
  <outline>
    <contour>
      <point x="287" y="-239" type="curve" smooth="yes"/>
      <point x="433" y="-239"/>
      <point x="500" y="-154"/>
      <point x="500" y="155" type="curve" smooth="yes"/>
      <point x="500" y="445" type="line" smooth="yes"/>
      <point x="500" y="760"/>
      <point x="433" y="908"/>
      <point x="271" y="908" type="curve" smooth="yes"/>
      <point x="104" y="908"/>
      <point x="49" y="711"/>
      <point x="49" y="526" type="curve" smooth="yes"/>
      <point x="49" y="361" type="line" smooth="yes"/>
      <point x="49" y="252"/>
      <point x="59" y="58"/>
      <point x="68" y="-10" type="curve"/>
      <point x="154" y="10" type="line"/>
      <point x="142" y="75"/>
      <point x="135" y="219"/>
      <point x="135" y="359" type="curve" smooth="yes"/>
      <point x="135" y="536" type="line" smooth="yes"/>
      <point x="135" y="646"/>
      <point x="144" y="845"/>
      <point x="271" y="845" type="curve" smooth="yes"/>
      <point x="382" y="845"/>
      <point x="415" y="734"/>
      <point x="415" y="438" type="curve" smooth="yes"/>
      <point x="415" y="99" type="line" smooth="yes"/>
      <point x="415" y="-165"/>
      <point x="375" y="-183"/>
      <point x="277" y="-183" type="curve" smooth="yes"/>
      <point x="219" y="-183"/>
      <point x="147" y="-151"/>
      <point x="121" y="-127" type="curve"/>
      <point x="121" y="-186" type="line"/>
      <point x="144" y="-204"/>
      <point x="219" y="-239"/>
    </contour>
  </outline>
</glyph>
<glyph name="uni1967" format="2">
  <advance width="290"/>
  <unicode hex="1967"/>
  <outline>
    <contour>
      <point x="246" y="-125" type="curve" smooth="yes"/>
      <point x="305" y="-125"/>
      <point x="402" y="-113"/>
      <point x="483" y="-98" type="curve"/>
      <point x="474" y="-54" type="line"/>
      <point x="402" y="-63"/>
      <point x="307" y="-69"/>
      <point x="261" y="-69" type="curve" smooth="yes"/>
      <point x="191" y="-69"/>
      <point x="150" y="-54"/>
      <point x="150" y="74" type="curve" smooth="yes"/>
      <point x="150" y="283" type="line" smooth="yes"/>
      <point x="150" y="344"/>
      <point x="146" y="481"/>
      <point x="121" y="547" type="curve"/>
      <point x="44" y="533" type="line"/>
      <point x="59" y="500"/>
      <point x="64" y="408"/>
      <point x="64" y="302" type="curve" smooth="yes"/>
      <point x="64" y="119" type="line" smooth="yes"/>
      <point x="64" y="-54"/>
      <point x="110" y="-125"/>
    </contour>
    <contour>
      <point x="236" y="-239" type="curve" smooth="yes"/>
      <point x="314" y="-239"/>
      <point x="425" y="-217"/>
      <point x="485" y="-195" type="curve"/>
      <point x="476" y="-152" type="line"/>
      <point x="413" y="-168"/>
      <point x="351" y="-182"/>
      <point x="249" y="-182" type="curve" smooth="yes"/>
      <point x="182" y="-182"/>
      <point x="99" y="-164"/>
      <point x="49" y="-82" type="curve"/>
      <point x="-1" y="-137" type="line"/>
      <point x="67" y="-233"/>
      <point x="166" y="-239"/>
    </contour>
  </outline>
</glyph>
<glyph name="uni1968" format="2">
  <advance width="247"/>
  <unicode hex="1968"/>
  <outline>
    <contour>
      <point x="246" y="-239" type="curve" smooth="yes"/>
      <point x="322" y="-239"/>
      <point x="417" y="-226"/>
      <point x="500" y="-203" type="curve"/>
      <point x="491" y="-157" type="line"/>
      <point x="426" y="-175"/>
      <point x="329" y="-183"/>
      <point x="261" y="-183" type="curve" smooth="yes"/>
      <point x="191" y="-183"/>
      <point x="150" y="-167"/>
      <point x="150" y="-40" type="curve" smooth="yes"/>
      <point x="150" y="281" type="line" smooth="yes"/>
      <point x="150" y="342"/>
      <point x="146" y="479"/>
      <point x="121" y="546" type="curve"/>
      <point x="44" y="531" type="line"/>
      <point x="59" y="498"/>
      <point x="64" y="406"/>
      <point x="64" y="300" type="curve" smooth="yes"/>
      <point x="64" y="5" type="line" smooth="yes"/>
      <point x="64" y="-167"/>
      <point x="110" y="-239"/>
    </contour>
  </outline>
</glyph>
<glyph name="uni1969" format="2">
  <advance width="502"/>
  <unicode hex="1969"/>
  <outline>
    <contour>
      <point x="250" y="-239" type="curve" smooth="yes"/>
      <point x="412" y="-239"/>
      <point x="453" y="23"/>
      <point x="453" y="180" type="curve" smooth="yes"/>
      <point x="453" y="245" type="line" smooth="yes"/>
      <point x="453" y="312"/>
      <point x="440" y="495"/>
      <point x="428" y="546" type="curve"/>
      <point x="351" y="536" type="line"/>
      <point x="361" y="453"/>
      <point x="367" y="300"/>
      <point x="367" y="220" type="curve" smooth="yes"/>
      <point x="367" y="111" type="line" smooth="yes"/>
      <point x="367" y="-49"/>
      <point x="356" y="-176"/>
      <point x="263" y="-176" type="curve" smooth="yes"/>
      <point x="185" y="-176"/>
      <point x="133" y="-134"/>
      <point x="133" y="163" type="curve" smooth="yes"/>
      <point x="133" y="337"/>
      <point x="145" y="500"/>
      <point x="147" y="546" type="curve"/>
      <point x="64" y="528" type="line"/>
      <point x="59" y="477"/>
      <point x="49" y="310"/>
      <point x="49" y="156" type="curve" smooth="yes"/>
      <point x="49" y="-127"/>
      <point x="116" y="-239"/>
    </contour>
  </outline>
</glyph>
<glyph name="uni196A" format="2">
  <advance width="549"/>
  <unicode hex="196A"/>
  <outline>
    <contour>
      <point x="322" y="-264" type="curve" smooth="yes"/>
      <point x="408" y="-264"/>
      <point x="506" y="-234"/>
      <point x="598" y="-189" type="curve"/>
      <point x="598" y="-129" type="line"/>
      <point x="510" y="-169"/>
      <point x="417" y="-200"/>
      <point x="322" y="-200" type="curve" smooth="yes"/>
      <point x="149" y="-200"/>
      <point x="135" y="-20"/>
      <point x="135" y="311" type="curve" smooth="yes"/>
      <point x="135" y="536" type="line" smooth="yes"/>
      <point x="135" y="646"/>
      <point x="144" y="845"/>
      <point x="271" y="845" type="curve" smooth="yes"/>
      <point x="382" y="845"/>
      <point x="417" y="734"/>
      <point x="417" y="431" type="curve"/>
      <point x="257" y="412"/>
      <point x="198" y="301"/>
      <point x="198" y="193" type="curve" smooth="yes"/>
      <point x="198" y="84"/>
      <point x="270" y="-10"/>
      <point x="401" y="-10" type="curve" smooth="yes"/>
      <point x="431" y="-10"/>
      <point x="465" y="-6"/>
      <point x="488" y="-1" type="curve"/>
      <point x="498" y="88"/>
      <point x="500" y="286"/>
      <point x="500" y="445" type="curve" smooth="yes"/>
      <point x="500" y="760"/>
      <point x="433" y="908"/>
      <point x="271" y="908" type="curve" smooth="yes"/>
      <point x="104" y="908"/>
      <point x="49" y="711"/>
      <point x="49" y="526" type="curve" smooth="yes"/>
      <point x="49" y="312" type="line" smooth="yes"/>
      <point x="49" y="-28"/>
      <point x="54" y="-264"/>
    </contour>
    <contour>
      <point x="408" y="46" type="curve"/>
      <point x="355" y="46"/>
      <point x="286" y="83"/>
      <point x="286" y="195" type="curve" smooth="yes"/>
      <point x="286" y="277"/>
      <point x="315" y="355"/>
      <point x="416" y="374" type="curve"/>
      <point x="416" y="250"/>
      <point x="413" y="121"/>
    </contour>
  </outline>
</glyph>
<glyph name="uni196B" format="2">
  <advance width="514"/>
  <unicode hex="196B"/>
  <outline>
    <contour>
      <point x="322" y="-264" type="curve" smooth="yes"/>
      <point x="408" y="-264"/>
      <point x="505" y="-235"/>
      <point x="598" y="-189" type="curve"/>
      <point x="598" y="-129" type="line"/>
      <point x="510" y="-169"/>
      <point x="417" y="-200"/>
      <point x="322" y="-200" type="curve" smooth="yes"/>
      <point x="149" y="-200"/>
      <point x="135" y="-20"/>
      <point x="135" y="311" type="curve" smooth="yes"/>
      <point x="135" y="554" type="line" smooth="yes"/>
      <point x="135" y="663"/>
      <point x="151" y="845"/>
      <point x="251" y="845" type="curve" smooth="yes"/>
      <point x="325" y="845"/>
      <point x="381" y="768"/>
      <point x="381" y="471" type="curve" smooth="yes"/>
      <point x="381" y="417"/>
      <point x="381" y="344"/>
      <point x="380" y="298" type="curve"/>
      <point x="465" y="313" type="line"/>
      <point x="465" y="350"/>
      <point x="465" y="416"/>
      <point x="465" y="459" type="curve" smooth="yes"/>
      <point x="465" y="797"/>
      <point x="378" y="908"/>
      <point x="253" y="908" type="curve" smooth="yes"/>
      <point x="86" y="908"/>
      <point x="49" y="673"/>
      <point x="49" y="536" type="curve" smooth="yes"/>
      <point x="49" y="312" type="line" smooth="yes"/>
      <point x="49" y="-28"/>
      <point x="54" y="-264"/>
    </contour>
  </outline>
</glyph>
<glyph name="uni196C" format="2">
  <advance width="209"/>
  <unicode hex="196C"/>
  <outline>
    <contour>
      <point x="49" y="0" type="line"/>
      <point x="135" y="0" type="line"/>
      <point x="135" y="554" type="line" smooth="yes"/>
      <point x="135" y="663"/>
      <point x="153" y="845"/>
      <point x="339" y="845" type="curve" smooth="yes"/>
      <point x="435" y="845"/>
      <point x="491" y="824"/>
      <point x="563" y="771" type="curve"/>
      <point x="600" y="817" type="line"/>
      <point x="514" y="874"/>
      <point x="447" y="908"/>
      <point x="335" y="908" type="curve" smooth="yes"/>
      <point x="89" y="908"/>
      <point x="49" y="673"/>
      <point x="49" y="536" type="curve" smooth="yes"/>
    </contour>
  </outline>
</glyph>
<glyph name="uni196D" format="2">
  <advance width="629"/>
  <unicode hex="196D"/>
  <outline>
    <contour>
      <point x="110" y="-127" type="curve" smooth="yes"/>
      <point x="215" y="-127"/>
      <point x="264" y="-47"/>
      <point x="283" y="89" type="curve"/>
      <point x="332" y="60"/>
      <point x="392" y="39"/>
      <point x="434" y="39" type="curve" smooth="yes"/>
      <point x="561" y="39"/>
      <point x="584" y="124"/>
      <point x="585" y="289" type="curve" smooth="yes"/>
      <point x="585" y="304" type="line" smooth="yes"/>
      <point x="585" y="415"/>
      <point x="578" y="508"/>
      <point x="570" y="546" type="curve"/>
      <point x="490" y="536" type="line"/>
      <point x="498" y="479"/>
      <point x="500" y="388"/>
      <point x="500" y="303" type="curve" smooth="yes"/>
      <point x="500" y="295" type="line" smooth="yes"/>
      <point x="500" y="148"/>
      <point x="484" y="103"/>
      <point x="411" y="103" type="curve" smooth="yes"/>
      <point x="365" y="103"/>
      <point x="322" y="119"/>
      <point x="289" y="142" type="curve"/>
      <point x="292" y="181"/>
      <point x="293" y="225"/>
      <point x="293" y="271" type="curve" smooth="yes"/>
      <point x="293" y="306" type="line" smooth="yes"/>
      <point x="293" y="400"/>
      <point x="289" y="546"/>
      <point x="193" y="546" type="curve" smooth="yes"/>
      <point x="151" y="546"/>
      <point x="112" y="514"/>
      <point x="83" y="478" type="curve"/>
      <point x="81" y="511"/>
      <point x="75" y="541"/>
      <point x="67" y="567" type="curve"/>
      <point x="-10" y="541" type="line"/>
      <point x="0" y="492"/>
      <point x="6" y="424"/>
      <point x="7" y="375" type="curve"/>
      <point x="75" y="378" type="line"/>
      <point x="100" y="448"/>
      <point x="126" y="482"/>
      <point x="159" y="482" type="curve" smooth="yes"/>
      <point x="198" y="482"/>
      <point x="207" y="448"/>
      <point x="207" y="325" type="curve" smooth="yes"/>
      <point x="207" y="279" type="line" smooth="yes"/>
      <point x="207" y="-11"/>
      <point x="203" y="-71"/>
      <point x="105" y="-71" type="curve" smooth="yes"/>
      <point x="74" y="-71"/>
      <point x="45" y="-63"/>
      <point x="20" y="-51" type="curve"/>
      <point x="20" y="-104" type="line"/>
      <point x="44" y="-115"/>
      <point x="79" y="-127"/>
    </contour>
  </outline>
</glyph>
<glyph name="uni1970" format="2">
  <advance width="554"/>
  <unicode hex="1970"/>
  <outline>
    <contour>
      <point x="84" y="-10" type="curve"/>
      <point x="172" y="10" type="line"/>
      <point x="180" y="60"/>
      <point x="185" y="192"/>
      <point x="185" y="251" type="curve" smooth="yes"/>
      <point x="185" y="301"/>
      <point x="181" y="394"/>
      <point x="174" y="469" type="curve"/>
      <point x="213" y="477"/>
      <point x="250" y="482"/>
      <point x="275" y="482" type="curve" smooth="yes"/>
      <point x="326" y="482"/>
      <point x="355" y="472"/>
      <point x="355" y="376" type="curve" smooth="yes"/>
      <point x="355" y="313" type="line" smooth="yes"/>
      <point x="355" y="68"/>
      <point x="390" y="-10"/>
      <point x="497" y="-10" type="curve" smooth="yes"/>
      <point x="528" y="-10"/>
      <point x="563" y="6"/>
      <point x="583" y="19" type="curve"/>
      <point x="583" y="64" type="line"/>
      <point x="560" y="55"/>
      <point x="537" y="46"/>
      <point x="513" y="46" type="curve" smooth="yes"/>
      <point x="452" y="46"/>
      <point x="441" y="73"/>
      <point x="441" y="255" type="curve" smooth="yes"/>
      <point x="441" y="372" type="line" smooth="yes"/>
      <point x="441" y="528"/>
      <point x="355" y="546"/>
      <point x="285" y="546" type="curve" smooth="yes"/>
      <point x="216" y="546"/>
      <point x="62" y="493"/>
      <point x="10" y="474" type="curve"/>
      <point x="22" y="433" type="line"/>
      <point x="41" y="438"/>
      <point x="64" y="444"/>
      <point x="90" y="450" type="curve"/>
      <point x="97" y="377"/>
      <point x="99" y="322"/>
      <point x="99" y="268" type="curve" smooth="yes"/>
      <point x="99" y="201"/>
      <point x="90" y="29"/>
    </contour>
  </outline>
</glyph>
<glyph name="uni1971" format="2">
  <advance width="523"/>
  <unicode hex="1971"/>
  <outline>
    <contour>
      <point x="250" y="-10" type="curve" smooth="yes"/>
      <point x="333" y="-10"/>
      <point x="430" y="39"/>
      <point x="479" y="81" type="curve"/>
      <point x="461" y="115" type="line"/>
      <point x="419" y="83"/>
      <point x="333" y="54"/>
      <point x="270" y="54" type="curve" smooth="yes"/>
      <point x="192" y="54"/>
      <point x="147" y="114"/>
      <point x="134" y="206" type="curve"/>
      <point x="157" y="206" type="line" smooth="yes"/>
      <point x="354" y="206"/>
      <point x="469" y="319"/>
      <point x="469" y="416" type="curve" smooth="yes"/>
      <point x="469" y="472"/>
      <point x="432" y="546"/>
      <point x="313" y="546" type="curve" smooth="yes"/>
      <point x="168" y="546"/>
      <point x="44" y="388"/>
      <point x="44" y="258" type="curve" smooth="yes"/>
      <point x="44" y="80"/>
      <point x="124" y="-10"/>
    </contour>
    <contour>
      <point x="130" y="262" type="curve"/>
      <point x="130" y="269" type="line" smooth="yes"/>
      <point x="130" y="396"/>
      <point x="186" y="482"/>
      <point x="290" y="482" type="curve" smooth="yes"/>
      <point x="337" y="482"/>
      <point x="383" y="460"/>
      <point x="383" y="400" type="curve" smooth="yes"/>
      <point x="383" y="306"/>
      <point x="277" y="262"/>
      <point x="151" y="262" type="curve" smooth="yes"/>
      <point x="144" y="262"/>
      <point x="137" y="262"/>
    </contour>
  </outline>
</glyph>
<glyph name="uni1972" format="2">
  <advance width="603"/>
  <unicode hex="1972"/>
  <outline>
    <contour>
      <point x="233" y="-10" type="curve" smooth="yes"/>
      <point x="299" y="-10"/>
      <point x="375" y="31"/>
      <point x="427" y="98" type="curve"/>
      <point x="445" y="19"/>
      <point x="480" y="-10"/>
      <point x="546" y="-10" type="curve" smooth="yes"/>
      <point x="577" y="-10"/>
      <point x="612" y="8"/>
      <point x="632" y="21" type="curve"/>
      <point x="632" y="64" type="line"/>
      <point x="609" y="55"/>
      <point x="586" y="46"/>
      <point x="562" y="46" type="curve" smooth="yes"/>
      <point x="504" y="46"/>
      <point x="498" y="73"/>
      <point x="498" y="255" type="curve" smooth="yes"/>
      <point x="498" y="294" type="line" smooth="yes"/>
      <point x="498" y="443"/>
      <point x="431" y="546"/>
      <point x="297" y="546" type="curve" smooth="yes"/>
      <point x="175" y="546"/>
      <point x="44" y="399"/>
      <point x="44" y="232" type="curve" smooth="yes"/>
      <point x="44" y="82"/>
      <point x="129" y="-10"/>
    </contour>
    <contour>
      <point x="265" y="54" type="curve" smooth="yes"/>
      <point x="171" y="54"/>
      <point x="130" y="142"/>
      <point x="130" y="269" type="curve" smooth="yes"/>
      <point x="130" y="396"/>
      <point x="177" y="482"/>
      <point x="282" y="482" type="curve" smooth="yes"/>
      <point x="384" y="482"/>
      <point x="412" y="393"/>
      <point x="412" y="275" type="curve" smooth="yes"/>
      <point x="412" y="160"/>
      <point x="388" y="54"/>
    </contour>
  </outline>
</glyph>
<glyph name="uni1973" format="2">
  <advance width="546"/>
  <unicode hex="1973"/>
  <outline>
    <contour>
      <point x="243" y="-10" type="curve" smooth="yes"/>
      <point x="369" y="-10"/>
      <point x="502" y="83"/>
      <point x="502" y="267" type="curve" smooth="yes"/>
      <point x="502" y="281" type="line" smooth="yes"/>
      <point x="502" y="392"/>
      <point x="491" y="489"/>
      <point x="479" y="541" type="curve"/>
      <point x="472" y="543"/>
      <point x="456" y="546"/>
      <point x="440" y="546" type="curve" smooth="yes"/>
      <point x="295" y="546"/>
      <point x="226" y="449"/>
      <point x="226" y="364" type="curve" smooth="yes"/>
      <point x="226" y="284"/>
      <point x="286" y="205"/>
      <point x="396" y="205" type="curve" smooth="yes"/>
      <point x="414" y="205" type="line"/>
      <point x="406" y="125"/>
      <point x="372" y="54"/>
      <point x="262" y="54" type="curve" smooth="yes"/>
      <point x="180" y="54"/>
      <point x="145" y="103"/>
      <point x="145" y="260" type="curve" smooth="yes"/>
      <point x="145" y="279" type="line" smooth="yes"/>
      <point x="145" y="390"/>
      <point x="139" y="492"/>
      <point x="126" y="546" type="curve"/>
      <point x="44" y="528" type="line"/>
      <point x="52" y="491"/>
      <point x="59" y="378"/>
      <point x="59" y="276" type="curve" smooth="yes"/>
      <point x="59" y="253" type="line" smooth="yes"/>
      <point x="59" y="79"/>
      <point x="113" y="-10"/>
    </contour>
    <contour>
      <point x="402" y="261" type="line" smooth="yes"/>
      <point x="361" y="261"/>
      <point x="312" y="285"/>
      <point x="312" y="367" type="curve" smooth="yes"/>
      <point x="312" y="427"/>
      <point x="331" y="483"/>
      <point x="407" y="497" type="curve"/>
      <point x="412" y="435"/>
      <point x="416" y="344"/>
      <point x="416" y="261" type="curve"/>
    </contour>
  </outline>
</glyph>
<glyph name="uni1974" format="2">
  <advance width="523"/>
  <unicode hex="1974"/>
  <outline>
    <contour>
      <point x="269" y="-10" type="curve" smooth="yes"/>
      <point x="351" y="-10"/>
      <point x="430" y="39"/>
      <point x="479" y="81" type="curve"/>
      <point x="461" y="115" type="line"/>
      <point x="419" y="83"/>
      <point x="354" y="54"/>
      <point x="290" y="54" type="curve" smooth="yes"/>
      <point x="196" y="54"/>
      <point x="130" y="142"/>
      <point x="130" y="269" type="curve" smooth="yes"/>
      <point x="130" y="396"/>
      <point x="169" y="482"/>
      <point x="274" y="482" type="curve" smooth="yes"/>
      <point x="334" y="482"/>
      <point x="366" y="458"/>
      <point x="389" y="416" type="curve"/>
      <point x="461" y="446" type="line"/>
      <point x="430" y="509"/>
      <point x="375" y="546"/>
      <point x="282" y="546" type="curve" smooth="yes"/>
      <point x="137" y="546"/>
      <point x="44" y="399"/>
      <point x="44" y="269" type="curve" smooth="yes"/>
      <point x="44" y="91"/>
      <point x="127" y="-10"/>
    </contour>
  </outline>
</glyph>
<glyph name="uni3001" format="2">
  <advance width="415"/>
  <unicode hex="3001"/>
  <outline>
    <contour>
      <point x="217" y="-49" type="curve" smooth="yes"/>
      <point x="251" y="-49"/>
      <point x="268" y="-34"/>
      <point x="268" y="-5" type="curve" smooth="yes"/>
      <point x="268" y="67"/>
      <point x="157" y="175"/>
      <point x="82" y="198" type="curve"/>
      <point x="59" y="171" type="line"/>
      <point x="114" y="136"/>
      <point x="154" y="88"/>
      <point x="171" y="2" type="curve" smooth="yes"/>
      <point x="179" y="-38"/>
      <point x="191" y="-49"/>
    </contour>
  </outline>
</glyph>
<glyph name="uni3002" format="2">
  <advance width="415"/>
  <unicode hex="3002"/>
  <outline>
    <contour>
      <point x="153" y="-15" type="curve" smooth="yes"/>
      <point x="208" y="-15"/>
      <point x="247" y="25"/>
      <point x="247" y="77" type="curve" smooth="yes"/>
      <point x="247" y="126"/>
      <point x="208" y="168"/>
      <point x="153" y="168" type="curve" smooth="yes"/>
      <point x="98" y="168"/>
      <point x="59" y="126"/>
      <point x="59" y="77" type="curve" smooth="yes"/>
      <point x="59" y="25"/>
      <point x="98" y="-15"/>
    </contour>
    <contour>
      <point x="153" y="24" type="curve" smooth="yes"/>
      <point x="124" y="24"/>
      <point x="101" y="47"/>
      <point x="101" y="77" type="curve" smooth="yes"/>
      <point x="101" y="106"/>
      <point x="124" y="129"/>
      <point x="153" y="129" type="curve" smooth="yes"/>
      <point x="183" y="129"/>
      <point x="205" y="106"/>
      <point x="205" y="77" type="curve" smooth="yes"/>
      <point x="205" y="47"/>
      <point x="183" y="24"/>
    </contour>
  </outline>
</glyph>
<glyph name="uni0300.space" format="2">
  <advance width="441"/>
  <note>
uni300.space
</note>
  <outline>
    <contour>
      <point x="217" y="606" type="curve"/>
      <point x="276" y="606" type="line"/>
      <point x="276" y="618" type="line"/>
      <point x="245" y="653"/>
      <point x="201" y="723"/>
      <point x="180" y="766" type="curve"/>
      <point x="75" y="766" type="line"/>
      <point x="75" y="756" type="line"/>
      <point x="99" y="719"/>
      <point x="168" y="645"/>
    </contour>
  </outline>
</glyph>
<glyph name="uni0301.space" format="2">
  <advance width="441"/>
  <note>
uni0301.space
</note>
  <outline>
    <contour>
      <point x="166" y="606" type="line"/>
      <point x="224" y="606" type="line"/>
      <point x="265" y="638"/>
      <point x="338" y="714"/>
      <point x="367" y="756" type="curve"/>
      <point x="367" y="766" type="line"/>
      <point x="261" y="766" type="line"/>
      <point x="235" y="715"/>
      <point x="190" y="649"/>
      <point x="166" y="618" type="curve"/>
    </contour>
  </outline>
</glyph>
<glyph name="uni0307.space" format="2">
  <advance width="441"/>
  <note>
uni0307.space
</note>
  <outline>
    <contour>
      <point x="221" y="625" type="curve" smooth="yes"/>
      <point x="248" y="625"/>
      <point x="272" y="643"/>
      <point x="272" y="681" type="curve" smooth="yes"/>
      <point x="272" y="720"/>
      <point x="248" y="737"/>
      <point x="221" y="737" type="curve" smooth="yes"/>
      <point x="191" y="737"/>
      <point x="169" y="720"/>
      <point x="169" y="681" type="curve" smooth="yes"/>
      <point x="169" y="643"/>
      <point x="191" y="625"/>
    </contour>
  </outline>
</glyph>
<glyph name="uni0308.space" format="2">
  <advance width="441"/>
  <note>
uni0308.space
</note>
  <outline>
    <contour>
      <point x="127" y="631" type="curve" smooth="yes"/>
      <point x="152" y="631"/>
      <point x="174" y="646"/>
      <point x="174" y="681" type="curve" smooth="yes"/>
      <point x="174" y="716"/>
      <point x="152" y="730"/>
      <point x="127" y="730" type="curve" smooth="yes"/>
      <point x="101" y="730"/>
      <point x="80" y="716"/>
      <point x="80" y="681" type="curve" smooth="yes"/>
      <point x="80" y="646"/>
      <point x="101" y="631"/>
    </contour>
    <contour>
      <point x="314" y="631" type="curve" smooth="yes"/>
      <point x="339" y="631"/>
      <point x="361" y="646"/>
      <point x="361" y="681" type="curve" smooth="yes"/>
      <point x="361" y="716"/>
      <point x="339" y="730"/>
      <point x="314" y="730" type="curve" smooth="yes"/>
      <point x="289" y="730"/>
      <point x="268" y="716"/>
      <point x="268" y="681" type="curve" smooth="yes"/>
      <point x="268" y="646"/>
      <point x="289" y="631"/>
    </contour>
  </outline>
</glyph>
<glyph name="uni030C.space" format="2">
  <advance width="441"/>
  <note>
uni030C.space
</note>
  <outline>
    <contour>
      <point x="175" y="606" type="curve"/>
      <point x="265" y="606" type="line"/>
      <point x="281" y="637"/>
      <point x="323" y="686"/>
      <point x="390" y="753" type="curve"/>
      <point x="390" y="766" type="line"/>
      <point x="328" y="766" type="line"/>
      <point x="296" y="746"/>
      <point x="260" y="715"/>
      <point x="219" y="674" type="curve"/>
      <point x="185" y="711"/>
      <point x="149" y="742"/>
      <point x="112" y="766" type="curve"/>
      <point x="52" y="766" type="line"/>
      <point x="52" y="753" type="line"/>
      <point x="114" y="688"/>
      <point x="155" y="639"/>
    </contour>
  </outline>
</glyph>
<glyph name="uni196C.wide" format="2">
  <advance width="684"/>
  <note>
uni196C.wide
</note>
  <outline>
    <contour>
      <point x="49" y="0" type="line"/>
      <point x="135" y="0" type="line"/>
      <point x="135" y="554" type="line" smooth="yes"/>
      <point x="135" y="753"/>
      <point x="205" y="845"/>
      <point x="339" y="845" type="curve" smooth="yes"/>
      <point x="428" y="845"/>
      <point x="485" y="828"/>
      <point x="563" y="771" type="curve"/>
      <point x="600" y="817" type="line"/>
      <point x="506" y="880"/>
      <point x="442" y="908"/>
      <point x="334" y="908" type="curve" smooth="yes"/>
      <point x="134" y="908"/>
      <point x="49" y="748"/>
      <point x="49" y="535" type="curve" smooth="yes"/>
    </contour>
  </outline>
</glyph>
